<svg width="512" height="512" viewBox="0 0 512 512" fill="none" xmlns="http://www.w3.org/2000/svg">
<rect width="512" height="512" rx="100" fill="#FC4903"/>
<path fill-rule="evenodd" clip-rule="evenodd" d="M256 75.5011L420.25 166.751V268.691L416.47 264.911L383.75 297.631V201.882L274.25 265.1V388.215L312.554 366.172L313.882 367.499L262.91 418.47L274.604 430.164L256 440.501L91.75 349.251V166.751L256 75.5011ZM128.25 202.904V325.242L237.75 388.215V266.123L128.25 202.904ZM256 115.949L153.125 175.109L255.124 234.002L357.981 174.617L256 115.949ZM442.281 316.53L391.312 367.499L442.283 418.47L416.473 444.28L365.503 393.309L314.531 444.28L288.722 418.47L339.693 367.499L288.723 316.53L314.533 290.721L365.503 341.69L416.471 290.721L442.281 316.53Z" fill="white"/>
</svg>
